REM COMMENT "Generated by IcecastMetadataRecorder https://github.com/eshaz/icecast-metadata-js"
REM BR "16"
REM METAINT "64"
REM DATE "2020-07-29T21:16:11.222Z"
TITLE "isics-all"
FILE "isics-all.mp3" WAVE
  TRACK 1 AUDIO
    TITLE "2020-07-29T21:36:43.222Z TO:1101 Polk County - Westcom Law Enforcement 1 FROM:1362"
    INDEX 01 20:32:00
  TRACK 2 AUDIO
    TITLE "2020-07-29T21:36:46.038Z TO:1101 Polk County - Westcom Law Enforcement 1 FROM:1004"
    INDEX 01 20:34:61
  TRACK 3 AUDIO
    TITLE "2020-07-29T21:36:47.446Z TO:52200 Mercy ONE Iowa Ground Dispatch FROM:10779515"
    INDEX 01 20:36:17
  TRACK 4 AUDIO
    TITLE "2020-07-29T21:36:50.934Z TO:52200 Mercy ONE Iowa Ground Dispatch FROM:10779527"
    INDEX 01 20:39:53
  TRACK 5 AUDIO
    TITLE "2020-07-29T21:36:53.046Z TO:18501 Boone County Law 1 FROM:800408"
    INDEX 01 20:41:62
  TRACK 6 AUDIO
    TITLE "2020-07-29T21:37:07.734Z TO:52200 Mercy ONE Iowa Ground Dispatch FROM:10779515"
    INDEX 01 20:56:38